<?xml version="1.0" encoding="UTF-8" standalone="no"?>
<svg
   xmlns:dc="http://purl.org/dc/elements/1.1/"
   xmlns:cc="http://creativecommons.org/ns#"
   xmlns:rdf="http://www.w3.org/1999/02/22-rdf-syntax-ns#"
   xmlns:svg="http://www.w3.org/2000/svg"
   xmlns="http://www.w3.org/2000/svg"
   xmlns:sodipodi="http://sodipodi.sourceforge.net/DTD/sodipodi-0.dtd"
   xmlns:inkscape="http://www.inkscape.org/namespaces/inkscape"
   version="1.1"
   id="Layer_1"
   x="0px"
   y="0px"
   viewBox="0 0 512.001 512.001"
   style="enable-background:new 0 0 512.001 512.001;"
   xml:space="preserve"
   sodipodi:docname="plate-sniper-gray.svg"
   inkscape:version="1.0.1 (3bc2e813f5, 2020-09-07)"><metadata
   id="metadata154"><rdf:RDF><cc:Work
       rdf:about=""><dc:format>image/svg+xml</dc:format><dc:type
         rdf:resource="http://purl.org/dc/dcmitype/StillImage" /><dc:title></dc:title></cc:Work></rdf:RDF></metadata><defs
   id="defs152" /><sodipodi:namedview
   pagecolor="#ffffff"
   bordercolor="#666666"
   borderopacity="1"
   objecttolerance="10"
   gridtolerance="10"
   guidetolerance="10"
   inkscape:pageopacity="0"
   inkscape:pageshadow="2"
   inkscape:window-width="1920"
   inkscape:window-height="1027"
   id="namedview150"
   showgrid="false"
   showguides="false"
   showborder="false"
   inkscape:zoom="0.83105306"
   inkscape:cx="13.03459"
   inkscape:cy="166.81726"
   inkscape:window-x="-8"
   inkscape:window-y="-8"
   inkscape:window-maximized="1"
   inkscape:current-layer="g111" />
<g
   id="g1486"
   transform="matrix(0.80258481,0,0,0.80258481,-78.12671,49.636322)"
   style="fill:#333333"><g
     id="g1393"
     style="fill:#333333">
	<g
   id="g1391"
   style="fill:#333333">
		<path
   d="M 256,0 C 207.449,0 160.182,13.675 119.307,39.545 l 16.044,25.35 C 171.419,42.066 213.139,30 256,30 c 42.861,0 84.581,12.066 120.648,34.895 l 16.044,-25.35 C 351.818,13.675 304.551,0 256,0 Z"
   id="path1389"
   style="fill:#333333" />
	</g>
</g><g
     id="g1399"
     style="fill:#333333">
	<g
   id="g1397"
   style="fill:#333333">
		<path
   d="M 376.649,447.105 C 340.581,469.934 298.861,482 256,482 213.139,482 171.419,469.934 135.352,447.105 l -16.044,25.35 C 160.182,498.325 207.449,512 256,512 c 48.551,0 95.818,-13.675 136.693,-39.545 z"
   id="path1395"
   style="fill:#333333" />
	</g>
</g><g
     id="g1405"
     style="fill:#333333">
	<g
   id="g1403"
   style="fill:#333333">
		<path
   d="m 472.455,119.307 -25.35,16.044 C 469.934,171.419 482,213.139 482,256 c 0,42.861 -12.066,84.581 -34.895,120.648 l 25.35,16.044 C 498.325,351.818 512,304.551 512,256 512,207.449 498.325,160.182 472.455,119.307 Z"
   id="path1401"
   style="fill:#333333" />
	</g>
</g><g
     id="g1411"
     style="fill:#333333">
	<g
   id="g1409"
   style="fill:#333333">
		<path
   d="M 64.895,135.352 39.545,119.307 C 13.675,160.182 0,207.449 0,256 c 0,48.551 13.675,95.818 39.545,136.693 l 25.35,-16.044 C 42.066,340.581 30,298.861 30,256 30,213.139 42.066,171.419 64.895,135.352 Z"
   id="path1407"
   style="fill:#333333" />
	</g>
</g><g
     id="g1417"
     style="fill:#333333">
	<g
   id="g1415"
   style="fill:#333333">
		<path
   d="m 256,204 c -28.673,0 -52,23.327 -52,52 0,28.673 23.327,52 52,52 28.673,0 52,-23.327 52,-52 0,-28.673 -23.327,-52 -52,-52 z m 0,74 c -12.131,0 -22,-9.869 -22,-22 0,-12.131 9.869,-22 22,-22 12.131,0 22,9.869 22,22 0,12.131 -9.869,22 -22,22 z"
   id="path1413"
   style="fill:#333333" />
	</g>
</g><g
     id="g1419"
     style="fill:#333333">
</g><g
     id="g1421"
     style="fill:#333333">
</g><g
     id="g1423"
     style="fill:#333333">
</g><g
     id="g1425"
     style="fill:#333333">
</g><g
     id="g1427"
     style="fill:#333333">
</g><g
     id="g1429"
     style="fill:#333333">
</g><g
     id="g1431"
     style="fill:#333333">
</g><g
     id="g1433"
     style="fill:#333333">
</g><g
     id="g1435"
     style="fill:#333333">
</g><g
     id="g1437"
     style="fill:#333333">
</g><g
     id="g1439"
     style="fill:#333333">
</g><g
     id="g1441"
     style="fill:#333333">
</g><g
     id="g1443"
     style="fill:#333333">
</g><g
     id="g1445"
     style="fill:#333333">
</g><g
     id="g1447"
     style="fill:#333333">
</g></g><g
   id="g87">
	<g
   id="g85">
		<polygon
   points="108.991,239.433 103.476,259.323 114.257,259.323   "
   id="polygon83" />
	</g>
</g>
<g
   id="g93">
	<g
   id="g91">
		<path
   d="M171.833,258.153h-13.456v9.945h12.87c2.675,0,4.764-1.754,4.764-4.847C176.011,260.326,174.256,258.153,171.833,258.153z    "
   id="path89" />
	</g>
</g>
<g
   id="g99">
	<g
   id="g97">
		<path
   d="M169.994,236.342h-11.617v9.109h11.115c2.173-0.001,4.43-0.92,4.43-4.597    C173.922,237.595,172.083,236.342,169.994,236.342z"
   id="path95" />
	</g>
</g>
<g
   id="g105">
	<g
   id="g103">
		<path
   d="M0,342.261v2.477c0,24.943,20.292,45.235,45.235,45.235h421.531c24.942,0,45.235-20.292,45.235-45.235v-2.477H0z"
   id="path101" />
	</g>
</g>
<g
   id="g111">
	<g
   id="g109">
		
	</g>
<rect
   style="fill:#000000;stroke-width:1;stroke-miterlimit:4;stroke-dasharray:none"
   id="rect1150"
   width="512"
   height="105.739"
   x="0"
   y="203.131" /><g
   aria-label="PLATE-SNIPER"
   id="text325"
   style="font-style:normal;font-variant:normal;font-weight:normal;font-stretch:normal;font-size:37.3333px;line-height:3.45;font-family:'Cascadia Code';-inkscape-font-specification:'Cascadia Code';fill:#ffffff;fill-opacity:1;stroke:none;stroke-width:1;stroke-miterlimit:4;stroke-dasharray:none"><path
     d="m 40.84344,226.00848 h 15.624993 q 8.249997,0 13.249995,4.70833 4.999998,4.70833 4.999998,12.41666 0,8.125 -5.083332,12.74999 -5.041664,4.58334 -13.999994,4.58334 h -2.166665 v 21.16665 H 40.84344 Z m 12.624995,10.66666 v 13.12499 q 4.249998,-0.0833 6.249997,-1.625 2.041666,-1.54166 2.041666,-4.87499 0,-3.58334 -1.958333,-5.04167 -1.958332,-1.5 -6.33333,-1.58333 z"
     style="font-style:normal;font-variant:normal;font-weight:normal;font-stretch:normal;font-size:85.3333px;font-family:'Tw Cen MT Condensed Extra Bold';-inkscape-font-specification:'Tw Cen MT Condensed Extra Bold, ';fill:#ffffff"
     id="path1488" /><path
     d="m 84.260089,226.00848 h 12.624994 v 42.74998 h 9.999997 v 12.87499 H 84.260089 Z"
     style="font-style:normal;font-variant:normal;font-weight:normal;font-stretch:normal;font-size:85.3333px;font-family:'Tw Cen MT Condensed Extra Bold';-inkscape-font-specification:'Tw Cen MT Condensed Extra Bold, ';fill:#ffffff"
     id="path1490" /><path
     d="m 154.3434,281.63345 h -13.125 l -2.125,-9.29166 h -13.33333 l -2.20833,9.29166 h -12.87499 l 14.74999,-55.62497 h 14.16666 z m -17.66666,-19.29166 q -2.83334,-12.41666 -4.25,-23.62499 h -0.16667 q -1.5,11.54167 -4.20833,23.62499 z"
     style="font-style:normal;font-variant:normal;font-weight:normal;font-stretch:normal;font-size:85.3333px;font-family:'Tw Cen MT Condensed Extra Bold';-inkscape-font-specification:'Tw Cen MT Condensed Extra Bold, ';fill:#ffffff"
     id="path1492" /><path
     d="m 154.09339,226.00848 h 30.12499 v 12.70832 h -8.70833 v 42.91665 H 162.71839 V 238.7168 h -8.625 z"
     style="font-style:normal;font-variant:normal;font-weight:normal;font-stretch:normal;font-size:85.3333px;font-family:'Tw Cen MT Condensed Extra Bold';-inkscape-font-specification:'Tw Cen MT Condensed Extra Bold, ';fill:#ffffff"
     id="path1494" /><path
     d="m 192.05171,226.00848 h 25.54165 V 237.8418 H 204.6767 v 10.25 h 11.20833 v 11.54166 H 204.6767 v 10.125 h 13 v 11.87499 h -25.62499 z"
     style="font-style:normal;font-variant:normal;font-weight:normal;font-stretch:normal;font-size:85.3333px;font-family:'Tw Cen MT Condensed Extra Bold';-inkscape-font-specification:'Tw Cen MT Condensed Extra Bold, ';fill:#ffffff"
     id="path1496" /><path
     d="m 225.84335,257.30013 h 19.20833 v 10.41666 h -19.20833 z"
     style="font-style:normal;font-variant:normal;font-weight:normal;font-stretch:normal;font-size:85.3333px;font-family:'Tw Cen MT Condensed Extra Bold';-inkscape-font-specification:'Tw Cen MT Condensed Extra Bold, ';fill:#ffffff"
     id="path1498" /><path
     d="m 254.34335,280.59179 v -12.95833 q 6,3.5 10.08333,3.5 2.375,0 3.75,-1.29167 1.375,-1.33333 1.375,-3.5 0,-1.66666 -1.125,-3.125 -1.08334,-1.45833 -3.79167,-3.54166 -6.54166,-5 -9.5,-9.29166 -2.91666,-4.33334 -2.91666,-9.625 0,-7.20833 4.54166,-11.74999 4.54167,-4.54167 11.75,-4.54167 5.33333,0 10.58333,2.29167 v 12.45832 q -5.625,-3.08333 -9.125,-3.08333 -2.33333,0 -3.70833,1.16667 -1.33333,1.125 -1.33333,3.125 0,3.5 6.29166,7.87499 3.75,2.58334 7.58333,7.29167 3.875,4.66666 3.875,10.83333 0,7.20833 -5.04166,11.95832 -5.04167,4.70834 -12.79167,4.70834 -5.29166,0 -10.49999,-2.5 z"
     style="font-style:normal;font-variant:normal;font-weight:normal;font-stretch:normal;font-size:85.3333px;font-family:'Tw Cen MT Condensed Extra Bold';-inkscape-font-specification:'Tw Cen MT Condensed Extra Bold, ';fill:#ffffff"
     id="path1500" /><path
     d="m 291.71833,226.00848 h 12.75 l 16.04166,32.08332 -0.45834,-6 v -26.08332 h 12.625 v 55.62497 h -12.95833 l -15.70833,-31.58332 0.33334,6.91667 v 24.66665 h -12.625 z"
     style="font-style:normal;font-variant:normal;font-weight:normal;font-stretch:normal;font-size:85.3333px;font-family:'Tw Cen MT Condensed Extra Bold';-inkscape-font-specification:'Tw Cen MT Condensed Extra Bold, ';fill:#ffffff"
     id="path1502" /><path
     d="m 345.09331,226.00848 h 12.62499 v 55.62497 h -12.62499 z"
     style="font-style:normal;font-variant:normal;font-weight:normal;font-stretch:normal;font-size:85.3333px;font-family:'Tw Cen MT Condensed Extra Bold';-inkscape-font-specification:'Tw Cen MT Condensed Extra Bold, ';fill:#ffffff"
     id="path1504" /><path
     d="m 370.05163,226.00848 h 15.62499 q 8.25,0 13.25,4.70833 5,4.70833 5,12.41666 0,8.125 -5.08333,12.74999 -5.04167,4.58334 -14,4.58334 h -2.16666 v 21.16665 h -12.625 z m 12.625,10.66666 v 13.12499 q 4.24999,-0.0833 6.24999,-1.625 2.04167,-1.54166 2.04167,-4.87499 0,-3.58334 -1.95833,-5.04167 -1.95834,-1.5 -6.33333,-1.58333 z"
     style="font-style:normal;font-variant:normal;font-weight:normal;font-stretch:normal;font-size:85.3333px;font-family:'Tw Cen MT Condensed Extra Bold';-inkscape-font-specification:'Tw Cen MT Condensed Extra Bold, ';fill:#ffffff"
     id="path1506" /><path
     d="m 413.46829,226.00848 h 25.54165 v 11.83332 h -12.91666 v 10.25 h 11.20833 v 11.54166 h -11.20833 v 10.125 h 13 v 11.87499 h -25.62499 z"
     style="font-style:normal;font-variant:normal;font-weight:normal;font-stretch:normal;font-size:85.3333px;font-family:'Tw Cen MT Condensed Extra Bold';-inkscape-font-specification:'Tw Cen MT Condensed Extra Bold, ';fill:#ffffff"
     id="path1508" /><path
     d="m 449.0516,226.00848 h 14.70833 q 8.91666,0 14.08332,4.58333 5.16667,4.58333 5.16667,12.45833 0,4.04166 -1.95833,7.83333 -1.95834,3.74999 -5.70833,5.66666 l 10.08333,25.08332 h -13.33333 l -10.20833,-25.33332 h -0.20834 v 25.33332 H 449.0516 Z m 12.62499,10.74999 v 13.20833 q 8.375,-0.16667 8.375,-5.875 0,-3.875 -1.95833,-5.54166 -1.91667,-1.66667 -6.41667,-1.79167 z"
     style="font-style:normal;font-variant:normal;font-weight:normal;font-stretch:normal;font-size:85.3333px;font-family:'Tw Cen MT Condensed Extra Bold';-inkscape-font-specification:'Tw Cen MT Condensed Extra Bold, ';fill:#ffffff"
     id="path1510" /></g></g>
<g
   id="g117">
	<g
   id="g115">
		<path
   d="M466.765,122.028H45.235C20.292,122.028,0,142.321,0,167.263v2.477h512v-2.477    C512,142.32,491.708,122.028,466.765,122.028z"
   id="path113" />
	</g>
</g>
<g
   id="g119">
</g>
<g
   id="g121">
</g>
<g
   id="g123">
</g>
<g
   id="g125">
</g>
<g
   id="g127">
</g>
<g
   id="g129">
</g>
<g
   id="g131">
</g>
<g
   id="g133">
</g>
<g
   id="g135">
</g>
<g
   id="g137">
</g>
<g
   id="g139">
</g>
<g
   id="g141">
</g>
<g
   id="g143">
</g>
<g
   id="g145">
</g>
<g
   id="g147">
</g>
<g
   inkscape:groupmode="layer"
   id="layer1"
   inkscape:label="Layer 1" /></svg>
